<svg className="preloader" width="230" height="142" viewBox="0 0 230 142" fill="none" xmlns="http://www.w3.org/2000/svg">
    <path d="M189 0H229.5V79.5H228.5V1H190V25H189V0Z" fill="#4CC8E5"/>
    <path d="M0 0.5H85V1.5H1V40H19V41H0V0.5Z" fill="#4CC8E5"/>
    <path d="M41.5 41.5H24.5V40.5H42.5V115H41.5V41.5Z" fill="#4CC8E5"/>
    <path d="M85.5 7.5H84.5V140.5H43V122H42V141.5H85.5V7.5Z" fill="#4CC8E5"/>
    <path d="M134.5 66.6623V104.5H135.5V69.3377L197.772 141H230V87H229V140H198.228L134.5 66.6623Z" fill="#4CC8E5"/>
    <path d="M97 140.5V49H96V141.5H135.5V111.5H134.5V140.5H97Z" fill="#4CC8E5"/>
    <path d="M96 0.5V42H97V1.5H129.763L189.5 74.399V31H188.5V71.601L130.237 0.5H96Z" fill="#4CC8E5"/>
</svg>

